<svg width="24" height="24" viewBox="0 0 24 24" fill="none" xmlns="http://www.w3.org/2000/svg">
<g clip-path="url(#clip0_36_555)">
<path fill-rule="evenodd" clip-rule="evenodd" d="M21.2597 15.388H12.4438C14.4452 15.2201 16.0173 13.5424 16.0173 11.4976C16.0173 9.34131 14.2693 7.59333 12.113 7.59333H9.23253C9.88963 6.70947 10.2784 5.6143 10.2784 4.42833C10.2784 2.57921 9.33327 0.950854 7.89972 0H21.2597C22.5369 0 23.572 1.03524 23.572 2.31226V13.0757C23.572 14.3527 22.5369 15.388 21.2597 15.388ZM4.96836 7.59554C6.71757 7.59554 8.13557 6.17753 8.13557 4.42833C8.13557 2.67914 6.71757 1.26113 4.96836 1.26113C3.21917 1.26113 1.80117 2.67914 1.80117 4.42833C1.80117 6.17753 3.21917 7.59554 4.96836 7.59554ZM13.8744 11.4976C13.8744 10.5248 13.0858 9.73618 12.113 9.73618H4.96899C2.46106 9.73618 0.427979 11.7693 0.427979 14.2772V16.3438C0.427979 17.2562 1.16757 17.9957 2.07989 17.9957H2.37413L2.85753 22.4698C2.95157 23.3403 3.6864 24 4.56189 24H5.42294C6.2784 24 7.00293 23.3693 7.12085 22.5221L8.41013 13.2589H12.113C13.0858 13.2589 13.8744 12.4703 13.8744 11.4976Z" fill="#012970"/>
</g>
<defs>
<clipPath id="clip0_36_555">
<rect width="24" height="24" fill="white"/>
</clipPath>
</defs>
</svg>
